<svg viewBox="0 0 400 400" xmlns="http://www.w3.org/2000/svg">
  <style>
    .parent-bound { fill: none; stroke: #adb5bd; stroke-width: 3; stroke-dasharray: 8,4; }
    .child-cell { fill: #e7f1ff; stroke: #0d6efd; stroke-width: 2; }
    .center-cell { fill: #d1e7dd; stroke: #198754; stroke-width: 2; }
    .label { font-family: sans-serif; font-size: 16px; font-weight: bold; text-anchor: middle; fill: #212529; }
    .parent-text { font-size: 14px; fill: #6c757d; font-style: italic; }
  </style>

  <polygon points="200,20 355.8,110 355.8,290 200,380 44.2,290 44.2,110" class="parent-bound" />
  <text x="200" y="45" class="parent-text">Parent Resolution R</text>

  <g transform="rotate(19.1, 200, 200)">
    <polygon points="200,131 260,165.5 260,234.5 200,269 140,234.5 140,165.5" class="center-cell" />
    <text x="200" y="206" class="label" transform="rotate(-19.1, 200, 200)">0</text>

    <g transform="translate(104, -60)">
      <polygon points="200,131 260,165.5 260,234.5 200,269 140,234.5 140,165.5" class="child-cell" />
      <text x="200" y="206" class="label" transform="rotate(-19.1, 200, 200)">1</text>
    </g>
    <g transform="translate(104, 60)">
      <polygon points="200,131 260,165.5 260,234.5 200,269 140,234.5 140,165.5" class="child-cell" />
      <text x="200" y="206" class="label" transform="rotate(-19.1, 200, 200)">2</text>
    </g>
    <g transform="translate(0, 120)">
      <polygon points="200,131 260,165.5 260,234.5 200,269 140,234.5 140,165.5" class="child-cell" />
      <text x="200" y="206" class="label" transform="rotate(-19.1, 200, 200)">3</text>
    </g>
    <g transform="translate(-104, 60)">
      <polygon points="200,131 260,165.5 260,234.5 200,269 140,234.5 140,165.5" class="child-cell" />
      <text x="200" y="206" class="label" transform="rotate(-19.1, 200, 200)">4</text>
    </g>
    <g transform="translate(-104, -60)">
      <polygon points="200,131 260,165.5 260,234.5 200,269 140,234.5 140,165.5" class="child-cell" />
      <text x="200" y="206" class="label" transform="rotate(-19.1, 200, 200)">5</text>
    </g>
    <g transform="translate(0, -120)">
      <polygon points="200,131 260,165.5 260,234.5 200,269 140,234.5 140,165.5" class="child-cell" />
      <text x="200" y="206" class="label" transform="rotate(-19.1, 200, 200)">6</text>
    </g>
  </g>
</svg>